PathFileType	4	(X/Y/Z)	./resultDataOpenSim/trcMotMarkerGrf/sub06/qtm-02-07.trc
DataRate	CameraRate	NumFrames	NumMarkers	Units	OrigDataRate	OrigDataStartFrame	OrigNumFrames
250.000000	250.000000	11	24	m	250.000000	371	494
Frame#	Time	L.Toe.Tip			R.Toe.Tip			L.Ankle.Lat			R.Ankle.Lat			L.Ankle.Med			R.Ankle.Med			L.Heel			R.Heel			L.Knee.Lat			R.Knee.Lat			L.Knee.Med			R.Knee.Med			L.Thigh.Upper			R.Thigh.Upper			L.ASIS			R.ASIS			V.Sacral			L.Acromium			R.Acromium			C7			L.Elbow			R.Elbow			L.Wrist.Lat			R.Wrist.Lat
		X1	Y1	Z1	X2	Y2	Z2	X3	Y3	Z3	X4	Y4	Z4	X5	Y5	Z5	X6	Y6	Z6	X7	Y7	Z7	X8	Y8	Z8	X9	Y9	Z9	X10	Y10	Z10	X11	Y11	Z11	X12	Y12	Z12	X13	Y13	Z13	X14	Y14	Z14	X15	Y15	Z15	X16	Y16	Z16	X17	Y17	Z17	X18	Y18	Z18	X19	Y19	Z19	X20	Y20	Z20	X21	Y21	Z21	X22	Y22	Z22	X23	Y23	Z23	X24	Y24	Z24

371	1.48	1.4593709	0.10261861	-0.074487411	0.89737374	0.034945796	0.10015413	1.3315054	0.10188186	-0.092257675	0.76556045	0.072694916	0.12976247	1.3354052	0.11735437	-0.0086435152	0.78686473	0.09494788	0.04362378	1.2719022	0.052038156	-0.046614021	0.70697069	0.060097627	0.07219991	1.2671268	0.46967443	-0.088775082	0.92675574	0.43083491	0.16495754	1.2619806	0.45728078	0.0329466	0.89575847	0.43493571	0.036551448	1.0652497	0.80606982	-0.11740069	1.0066056	0.78684093	0.22862111	1.1248643	0.84918672	-0.061613208	1.111112	0.83893134	0.18741436	0.93202631	0.91572501	0.057000921	1.0380558	1.3255497	-0.11952878	1.0741926	1.3163636	0.24112082	0.98102555	1.3593448	0.067879576	0.92683254	1.0314874	-0.17775362	1.0550624	1.0007648	0.33713337	1.0222593	0.81417968	-0.23520522	1.2874861	0.91517689	0.29637337
372	1.484	1.4740348	0.10531526	-0.073299866	0.89743409	0.034935219	0.10013582	1.3460297	0.10190675	-0.091339959	0.76608295	0.073537149	0.12985884	1.3491649	0.11747596	-0.0076825407	0.78750089	0.095575226	0.043683996	1.2875767	0.050820013	-0.04543931	0.70734126	0.061433787	0.072276865	1.2728042	0.46721611	-0.088192691	0.93076003	0.43021188	0.16479979	1.2676372	0.45482858	0.033811731	0.90007579	0.43448081	0.036235898	1.0718047	0.80454786	-0.11755936	1.0126013	0.78548491	0.22815297	1.1317746	0.8475688	-0.061823089	1.117572	0.83735859	0.18725974	0.93852408	0.91426808	0.056451884	1.0441858	1.3239318	-0.11989388	1.0802751	1.3149408	0.24084781	0.98713834	1.3578889	0.067494074	0.93255159	1.030186	-0.17740539	1.0621503	0.99926304	0.33703704	1.0257407	0.8123048	-0.23586755	1.2949054	0.91500569	0.29569068
373	1.488	1.4880463	0.10806803	-0.072239415	0.89749748	0.034941238	0.10012443	1.3599507	0.10204801	-0.090419609	0.76668409	0.074428941	0.13004028	1.3625135	0.11759049	-0.0065847312	0.78815422	0.096254945	0.043811847	1.3025745	0.049850255	-0.044441883	0.70770364	0.062866956	0.07250469	1.2785799	0.46485476	-0.087564514	0.93489086	0.42957258	0.16466256	1.2733046	0.45240771	0.034718714	0.9044817	0.43401618	0.035979751	1.0783828	0.80299978	-0.11772476	1.0186663	0.78413043	0.22766577	1.1387238	0.84598837	-0.062060889	1.1241139	0.83579258	0.18705946	0.94508272	0.91280259	0.055907081	1.0503619	1.3223277	-0.12028562	1.0863615	1.313527	0.24054382	0.99326181	1.3564299	0.067086132	0.93834093	1.0288914	-0.177073	1.0691779	0.99777058	0.33688947	1.0293069	0.81045622	-0.23650381	1.3022515	0.91475427	0.29502559
374	1.492	1.5013373	0.11090302	-0.071321339	0.89756387	0.034966365	0.10012436	1.3732314	0.10228232	-0.089489743	0.76737682	0.075383804	0.13030231	1.3753268	0.11768466	-0.0055028571	0.78881726	0.096999532	0.044013078	1.3168665	0.049124557	-0.043762687	0.70808208	0.06440376	0.072865716	1.2844709	0.46262006	-0.08688541	0.93915538	0.42891548	0.16454204	1.278991	0.45005054	0.035676522	0.90896209	0.43354303	0.035807591	1.085056	0.80142644	-0.11792913	1.0248068	0.78277017	0.2271605	1.1457159	0.84444996	-0.062323858	1.1307493	0.83423637	0.18681039	0.95171268	0.91134224	0.055365483	1.0565817	1.3207414	-0.12070012	1.0924508	1.3121234	0.24020584	0.99939281	1.3549837	0.066659533	0.94420563	1.0276083	-0.1767568	1.0761602	0.99629255	0.33670544	1.0329602	0.8086326	-0.23711567	1.3095291	0.91441543	0.29437635
375	1.496	1.5138405	0.1137919	-0.070533693	0.89763594	0.035019216	0.10013896	1.3858346	0.10258018	-0.0885295	0.76816834	0.076413554	0.13063822	1.3871997	0.11774763	-0.0046102665	0.78949492	0.097814264	0.044284745	1.3304946	0.048546967	-0.043223852	0.70848964	0.066054931	0.073344941	1.2904955	0.46053105	-0.086151835	0.9435613	0.42823921	0.16443585	1.2847427	0.44779901	0.036690674	0.91355177	0.43304435	0.035669434	1.0918409	0.79984044	-0.11817636	1.0310196	0.78140964	0.22662368	1.1527533	0.84296075	-0.062604258	1.1374655	0.83268989	0.18650549	0.95841208	0.90990133	0.054823506	1.0628375	1.3191754	-0.12113128	1.0985494	1.310733	0.239841	1.005535	1.353548	0.066216217	0.95015356	1.0263384	-0.17646018	1.083118	0.99484076	0.33650192	1.0367132	0.80683406	-0.2377015	1.316749	0.91399267	0.29373719
376	1.5	1.525559	0.11657033	-0.069803174	0.89770472	0.035124093	0.10017016	1.3977491	0.1028907	-0.087525036	0.76903372	0.077514992	0.13103638	1.3980955	0.1178594	-0.003876613	0.79020532	0.098698157	0.044614864	1.3434675	0.04798812	-0.042502844	0.70892662	0.067829058	0.073931502	1.2966599	0.45860425	-0.08535438	0.94811711	0.42754243	0.16434379	1.2905927	0.44570602	0.037761275	0.91826258	0.43250347	0.035533848	1.0987267	0.79825996	-0.11845743	1.037232	0.78005306	0.22596218	1.1598317	0.84152581	-0.062896441	1.1442415	0.83115667	0.18614618	0.96516971	0.90849511	0.054275794	1.0691264	1.3176304	-0.12158472	1.1046661	1.3093612	0.23945745	1.0116959	1.3521209	0.065752156	0.95619482	1.0250852	-0.1761747	1.0900543	0.99342409	0.33627846	1.0405808	0.80506272	-0.23825956	1.3239144	0.91349954	0.29310591
377	1.504	1.5365689	0.1189931	-0.069025874	0.89775604	0.035293111	0.10022019	1.4090023	0.10314621	-0.086476576	0.76991679	0.078681523	0.13148415	1.4084914	0.11815601	-0.0031083069	0.79097342	0.099649805	0.044988759	1.3557265	0.047370768	-0.041414339	0.70940489	0.069728905	0.07460209	1.3029513	0.45685995	-0.084478635	0.95282555	0.42682471	0.16426562	1.296548	0.44382907	0.038881304	0.92308355	0.43191933	0.035419452	1.1056959	0.79669799	-0.11876505	1.0432808	0.77867943	0.22499603	1.1669401	0.84014483	-0.06319904	1.1510637	0.82964408	0.18574422	0.97197434	0.90713393	0.053714397	1.075456	1.3161093	-0.12207301	1.1108005	1.3080131	0.23905305	1.0178874	1.3507135	0.065256336	0.96234247	1.0238594	-0.17587049	1.0969568	0.99204468	0.33602119	1.0445691	0.80332178	-0.23879074	1.3310123	0.91294285	0.29248779
378	1.508	1.5469503	0.12090448	-0.068155851	0.89780076	0.035477778	0.10028839	1.4196264	0.10328702	-0.085382199	0.77079126	0.079917391	0.13197579	1.4187653	0.11859381	-0.0021706521	0.79182341	0.10067105	0.045394291	1.3672103	0.046692321	-0.040042694	0.70995541	0.071754463	0.07532327	1.3093494	0.45531309	-0.083518283	0.95768036	0.4260897	0.16420047	1.3026005	0.44221145	0.040032172	0.92802504	0.43130342	0.035348966	1.1127385	0.79515824	-0.11909733	1.0490523	0.7772759	0.22363817	1.1740679	0.83881413	-0.063510177	1.1579302	0.82815555	0.18531439	0.97882576	0.90581937	0.053133254	1.0818359	1.3146161	-0.12260027	1.1169483	1.3066948	0.23861979	1.0241225	1.3493384	0.064722651	0.96860096	1.0226707	-0.17552591	1.1038164	0.99070344	0.33572134	1.0486714	0.80161346	-0.2392962	1.3380241	0.91231634	0.29189136
379	1.512	1.5567395	0.12229004	-0.067209178	0.89787249	0.035592566	0.10037268	1.4296287	0.10327145	-0.084226586	0.77169932	0.081224449	0.13250729	1.4288046	0.11891344	-0.0010551837	0.7927687	0.10176929	0.04582733	1.3778883	0.045976088	-0.038613803	0.71060236	0.073906481	0.076074417	1.3158396	0.45395737	-0.082483375	0.96267312	0.42534451	0.16414703	1.3087168	0.44086688	0.041186123	0.93311395	0.43066865	0.035321099	1.1198541	0.79364662	-0.11945009	1.054682	0.77589651	0.22210052	1.1812124	0.83752962	-0.063827393	1.1648437	0.82669034	0.1848697	0.9857282	0.90454836	0.052535553	1.0882688	1.3131523	-0.12315903	1.1231182	1.3054147	0.23815366	1.0304087	1.3479995	0.064152903	0.97494683	1.0215084	-0.17517303	1.1106303	0.9894016	0.33537837	1.0528826	0.7999363	-0.23977682	1.3449456	0.91161202	0.29131993
380	1.516	1.5659429	0.12319129	-0.066201179	0.89799188	0.035601842	0.10048181	1.439	0.1030679	-0.08298694	0.77271564	0.082595245	0.13308132	1.4382337	0.11889373	0.00020159218	0.7938007	0.10295686	0.046301886	1.3877641	0.045209222	-0.037221608	0.71134709	0.076188793	0.076853959	1.3224137	0.45276295	-0.08140006	0.96780011	0.42459421	0.16410502	1.3148466	0.43978512	0.042314345	0.93836608	0.43002258	0.035323058	1.127043	0.79218086	-0.11981815	1.0605002	0.77461702	0.22076526	1.1883848	0.83628706	-0.064154149	1.1718062	0.82525114	0.18442639	0.99267697	0.90331829	0.05193486	1.0947529	1.3117172	-0.12373968	1.1293255	1.3041796	0.23765186	1.0367443	1.3466976	0.063548056	0.98133982	1.0203469	-0.17487802	1.117396	0.98813858	0.33499451	1.057211	0.79828685	-0.24023598	1.3517867	0.9108273	0.29076977
381	1.52	1.5745656	0.12364439	-0.06513854	0.89815326	0.035539738	0.10063919	1.4477346	0.10264727	-0.081640514	0.77390169	0.084025214	0.13373111	1.4468433	0.11850324	0.0015796236	0.79488509	0.10424847	0.04685395	1.3968728	0.044335787	-0.035749422	0.71218657	0.078605556	0.077664599	1.3290591	0.45168644	-0.080306702	0.97306284	0.42384255	0.16407942	1.3209757	0.43894718	0.043390142	0.9437803	0.42936936	0.035347533	1.1343	0.79078361	-0.1201976	1.0667346	0.7734418	0.21983962	1.195609	0.83508216	-0.06450001	1.1788153	0.82384604	0.18400425	0.99966175	0.90212901	0.051344984	1.1012857	1.3103126	-0.1243407	1.1355727	1.3029877	0.2371153	1.0431195	1.3454304	0.062909029	0.98776202	1.0191725	-0.17467194	1.124111	0.98691332	0.33457323	1.0616679	0.79666671	-0.24067843	1.358552	0.90996248	0.29023563
